<svg xmlns="http://www.w3.org/2000/svg" width="1038" height="240" viewBox="0 0 1038 240">
<g>
<path d="M 415.77 133.72 L 415.50 152.50 L 409.46 152.79 C406.14,152.95 403.10,152.77 402.71,152.38 C402.32,151.99 402.00,129.20 402.00,101.75 L 402.00 51.82 L 427.25 52.23 C454.85,52.68 456.63,53.00 463.64,58.70 C469.97,63.84 472.17,69.95 472.16,82.38 C472.15,96.73 468.60,104.37 459.22,110.17 C456.68,111.74 456.08,112.67 456.57,114.23 C457.19,116.16 464.26,131.36 470.88,144.94 C472.63,148.53 473.63,151.77 473.16,152.24 C472.68,152.72 469.45,152.97 465.97,152.80 L 459.64 152.50 L 442.19 115.50 L 416.04 114.94 ZM 305.69 149.76 C305.15,150.59 301.94,151.00 295.94,151.00 L 287.00 151.00 L 287.00 148.18 C287.00,146.63 287.64,143.14 288.42,140.43 C289.20,137.72 290.37,132.80 291.02,129.50 C291.66,126.20 293.49,117.88 295.08,111.00 C296.67,104.12 298.92,94.22 300.09,89.00 C302.92,76.28 306.98,58.92 307.62,56.75 C308.09,55.16 309.89,55.00 326.93,55.00 L 345.72 55.00 L 347.31 62.75 C348.19,67.01 350.33,76.57 352.06,84.00 C353.80,91.43 356.05,101.32 357.07,106.00 C358.09,110.68 360.56,121.70 362.56,130.50 C364.56,139.30 366.27,147.40 366.35,148.50 C366.49,150.35 365.80,150.52 356.91,150.78 L 347.33 151.07 L 345.53 142.51 L 343.74 133.95 L 326.62 134.23 L 309.50 134.50 L 308.00 141.51 C307.17,145.37 306.14,149.08 305.69,149.76 ZM 1026.80 148.37 C1026.50,153.47 1026.48,153.50 1023.00,153.69 C1018.96,153.90 1015.39,152.94 1011.28,150.51 C1008.53,148.88 1008.11,148.89 1003.44,150.56 C998.28,152.40 979.14,153.75 974.53,152.60 C970.39,151.56 965.29,146.28 963.58,141.29 C960.41,131.98 962.31,119.51 967.61,114.83 C971.46,111.42 979.36,109.24 990.50,108.48 C1005.29,107.49 1006.00,107.17 1006.00,101.57 C1006.00,91.46 1002.79,89.32 988.58,89.95 C983.04,90.20 975.80,90.42 972.50,90.45 L 966.50 90.50 L 966.20 85.84 C965.92,81.45 966.06,81.15 968.70,80.58 C980.48,78.05 998.99,77.32 1005.48,79.12 C1010.57,80.53 1016.47,86.43 1017.88,91.52 C1018.53,93.86 1018.99,104.49 1018.99,117.32 C1019.00,140.86 1019.08,141.23 1024.43,142.57 C1026.94,143.20 1027.08,143.54 1026.80,148.37 ZM 538.50 152.13 C536.85,152.48 528.03,152.82 518.91,152.88 C503.39,152.99 502.03,152.85 497.91,150.69 C492.93,148.09 487.70,141.14 485.83,134.66 C485.14,132.27 484.64,124.32 484.64,116.00 C484.65,103.26 484.93,100.77 486.96,95.50 C491.79,82.97 501.50,77.43 517.35,78.19 C530.81,78.84 536.97,82.90 542.11,94.50 C544.77,100.53 545.44,117.55 543.13,120.34 C541.92,121.80 538.98,122.00 519.29,122.00 L 496.82 122.00 L 497.52 126.25 C498.51,132.24 500.31,136.10 503.46,139.00 C506.15,141.48 506.36,141.50 524.13,141.48 L 542.09 141.45 L 541.79 146.47 C541.52,151.15 541.30,151.53 538.50,152.13 ZM 656.50 152.13 C654.85,152.48 646.08,152.82 637.00,152.88 C621.98,152.99 620.11,152.80 616.15,150.84 C605.88,145.76 601.50,133.96 602.19,113.21 C602.56,101.87 602.91,99.82 605.47,94.19 C610.57,82.92 618.96,78.00 633.03,78.00 C646.09,78.00 654.01,82.24 658.67,91.75 C661.30,97.09 661.50,98.36 661.50,109.50 L 661.50 121.50 L 638.25 121.77 L 615.00 122.04 L 615.02 125.27 C615.05,129.48 618.03,135.85 621.45,139.00 C624.14,141.47 624.37,141.50 642.13,141.50 L 660.09 141.50 L 659.79 146.49 C659.52,151.15 659.29,151.53 656.50,152.13 ZM 778.35 151.13 C777.11,152.16 772.15,152.57 758.60,152.77 C738.34,153.07 735.20,152.34 729.69,146.08 C723.45,138.98 722.53,135.19 722.54,116.50 C722.55,100.17 722.65,99.28 725.20,94.00 C730.51,82.97 736.94,78.87 750.00,78.21 C764.72,77.47 773.66,81.71 778.60,91.77 C781.20,97.06 781.42,98.41 781.46,109.50 L 781.50 121.50 L 758.12 121.77 L 734.75 122.04 L 735.43 127.22 C736.22,133.17 738.04,136.65 741.83,139.50 C744.27,141.33 746.04,141.50 762.25,141.48 L 780.00 141.46 L 780.00 145.61 C780.00,148.24 779.40,150.26 778.35,151.13 ZM 278.08 134.05 L 277.50 150.50 L 250.25 150.77 L 223.00 151.03 L 223.00 55.00 L 241.98 55.00 L 242.24 94.25 L 242.50 133.50 ZM 810.03 94.21 L 809.50 152.50 L 803.96 152.79 C800.91,152.96 798.10,152.77 797.71,152.38 C797.32,151.99 797.00,135.32 797.00,115.33 L 797.00 79.00 L 803.09 79.00 C808.21,79.00 809.27,79.30 809.68,80.87 C810.15,82.69 810.33,82.68 815.33,80.68 C819.37,79.06 822.81,78.60 831.07,78.56 C840.98,78.50 841.90,78.67 845.80,81.25 C854.24,86.83 855.80,94.80 855.94,133.13 C856.01,153.25 855.99,153.30 848.33,152.81 L 843.50 152.50 L 842.94 126.00 C842.61,109.99 841.94,98.46 841.27,96.88 C840.65,95.44 838.88,93.26 837.32,92.03 C834.80,90.03 833.66,89.84 826.50,90.25 C822.10,90.50 816.59,91.50 814.26,92.46 ZM 574.76 121.78 L 574.50 152.50 L 568.96 152.79 C565.91,152.96 563.10,152.77 562.71,152.38 C562.32,151.99 562.00,138.04 562.00,121.39 L 562.00 91.11 L 557.75 90.81 L 553.50 90.50 L 553.20 84.81 L 552.90 79.12 L 557.20 78.81 L 561.50 78.50 L 562.09 70.00 C563.46,50.14 567.11,46.73 586.45,47.22 L 597.50 47.50 L 597.50 58.50 L 588.37 58.79 C576.76,59.15 576.03,59.82 575.27,70.89 L 574.72 78.93 L 585.11 79.21 L 595.50 79.50 L 595.50 90.50 L 585.26 90.78 L 575.03 91.07 ZM 919.26 152.09 C915.81,153.40 893.97,154.06 889.72,152.98 C881.62,150.92 877.37,147.38 874.13,139.99 C869.96,130.50 868.95,110.41 871.97,97.21 C873.57,90.21 878.29,84.11 884.51,81.00 C889.01,78.75 890.68,78.50 901.50,78.52 C908.10,78.53 915.21,78.89 917.30,79.32 L 921.10 80.11 L 920.80 85.30 L 920.50 90.50 L 906.97 90.50 C891.18,90.50 889.14,91.30 885.66,98.83 C883.78,102.88 883.52,105.15 883.62,116.00 C883.75,129.94 884.77,133.54 889.99,138.50 L 893.14 141.50 L 906.99 141.44 L 920.83 141.39 L 921.17 146.31 C921.46,150.65 921.23,151.34 919.26,152.09 ZM 416.00 64.00 L 416.00 103.00 L 429.25 102.98 C445.33,102.95 449.24,102.13 453.63,97.87 C459.34,92.34 460.87,80.50 456.94,72.38 C453.52,65.30 449.51,64.00 431.18,64.00 ZM 689.77 126.36 L 689.50 152.50 L 683.96 152.79 C680.91,152.96 678.10,152.77 677.71,152.38 C677.32,151.99 677.00,135.30 677.00,115.29 L 677.00 78.90 L 683.25 79.20 L 689.50 79.50 L 689.81 83.31 C689.99,85.41 690.44,86.96 690.81,86.77 C697.33,83.38 705.60,79.82 709.80,78.61 C716.04,76.81 716.27,77.05 715.81,85.12 L 715.50 90.50 L 710.56 91.72 C705.38,93.00 693.39,97.71 691.27,99.29 C690.36,99.98 689.96,107.06 689.77,126.36 ZM 947.89 151.63 C946.72,153.04 936.93,153.60 935.67,152.33 C935.30,151.97 935.00,135.30 935.00,115.29 L 935.00 78.91 L 941.75 79.20 L 948.50 79.50 L 948.76 114.88 C948.95,140.16 948.70,150.65 947.89,151.63 ZM 314.52 112.75 L 313.82 117.00 L 325.94 117.00 L 326.54 117.00 C333.88,117.00 337.23,117.00 338.40,115.41 C339.38,114.07 338.82,111.60 337.80,107.07 L 337.70 106.63 C336.82,102.71 334.95,94.10 333.54,87.50 C332.13,80.90 330.75,74.49 330.47,73.25 C330.07,71.48 329.27,71.00 326.67,71.00 L 323.38 71.00 L 321.08 81.75 C319.81,87.66 317.98,96.10 316.99,100.50 C316.01,104.90 314.90,110.41 314.52,112.75 ZM 982.09 142.14 C986.14,143.29 1002.02,140.91 1004.75,138.75 C1005.60,138.07 1006.00,134.58 1006.00,127.88 L 1006.00 118.00 L 1002.75 118.03 C1000.96,118.04 995.26,118.46 990.09,118.96 C977.93,120.14 975.86,121.83 975.86,130.51 C975.86,137.02 977.97,140.97 982.09,142.14 ZM 615.67 110.33 C616.95,111.62 647.82,111.09 648.64,109.78 C649.81,107.88 649.00,100.95 647.16,97.13 C646.25,95.23 644.30,92.79 642.82,91.70 C637.72,87.93 625.60,88.54 620.71,92.81 C616.87,96.18 613.43,108.10 615.67,110.33 ZM 497.50 110.00 C498.34,111.36 529.27,111.33 530.63,109.97 C532.14,108.46 530.49,98.14 528.24,95.07 C521.83,86.32 504.34,87.51 499.84,97.00 C497.93,101.02 496.58,108.52 497.50,110.00 ZM 735.31 109.36 C735.89,110.87 737.71,111.02 752.23,110.77 L 768.50 110.50 L 768.40 104.94 C768.21,95.18 763.97,90.09 755.32,89.26 C744.53,88.22 737.80,92.67 735.81,102.15 C735.18,105.18 734.95,108.43 735.31,109.36 ZM 229.00 213.00 C229.00,216.78 228.63,218.00 227.50,218.00 C226.24,218.00 226.00,215.89 226.00,205.00 L 226.00 192.00 L 231.95 192.00 C239.71,192.00 242.81,193.44 243.55,197.41 C244.23,201.04 242.68,205.80 240.55,206.62 C239.30,207.10 239.46,207.98 241.53,212.06 C244.39,217.71 244.45,218.00 242.67,218.00 C241.94,218.00 240.29,215.75 239.00,213.00 C236.79,208.28 236.45,208.00 232.83,208.00 L 229.00 208.00 ZM 768.75 217.85 C767.51,217.78 765.36,218.03 763.96,218.42 C762.12,218.92 760.66,218.52 758.71,216.98 C756.33,215.11 756.00,214.16 756.00,209.12 C756.00,201.79 757.38,199.94 763.31,199.27 C768.00,198.74 768.00,198.74 768.00,194.87 C768.00,192.10 768.43,191.00 769.50,191.00 C770.76,191.00 771.00,193.17 771.00,204.49 C771.00,217.85 770.98,217.98 768.75,217.85 ZM 954.91 216.50 C953.38,218.03 946.56,219.16 943.75,218.35 C942.20,217.91 942.00,216.36 942.00,204.43 C942.00,196.69 942.40,191.00 942.94,191.00 C943.46,191.00 944.02,192.91 944.19,195.25 L 944.50 199.50 L 949.46 199.50 C953.73,199.50 954.61,199.85 955.75,202.00 C957.41,205.12 956.87,214.56 954.91,216.50 ZM 674.00 222.38 C674.00,224.92 673.55,227.00 673.00,227.00 C672.38,227.00 672.00,221.87 672.00,213.61 L 672.00 200.23 L 676.51 199.55 C684.33,198.38 687.00,200.66 687.00,208.52 C687.00,215.55 682.85,219.46 676.66,218.28 C674.09,217.78 674.00,217.92 674.00,222.38 ZM 598.08 218.00 C596.48,218.00 594.56,218.19 593.83,218.43 C589.34,219.89 585.45,213.30 586.59,206.15 C587.39,201.16 588.90,199.78 594.34,199.06 C598.31,198.53 598.51,198.33 598.81,194.75 C598.98,192.69 599.54,191.00 600.06,191.00 C600.60,191.00 601.00,196.74 601.00,204.50 L 601.00 218.00 ZM 277.75 218.01 C276.51,218.02 274.55,218.28 273.40,218.59 C270.45,219.38 266.15,215.32 265.90,211.50 C265.30,202.57 266.84,199.92 273.11,199.09 C277.34,198.52 277.51,198.36 277.81,194.75 C277.98,192.69 278.54,191.00 279.06,191.00 C279.60,191.00 280.00,196.74 280.00,204.50 C280.00,217.83 279.97,218.00 277.75,218.01 ZM 384.25 216.27 C382.20,218.12 378.13,219.12 376.00,218.31 C372.03,216.80 371.00,214.75 371.00,208.40 C371.00,203.04 371.33,201.88 373.22,200.56 C374.44,199.70 376.82,199.00 378.50,199.00 C380.18,199.00 382.56,199.70 383.78,200.56 C385.67,201.88 386.00,203.04 386.00,208.40 C386.00,213.12 385.56,215.08 384.25,216.27 ZM 921.64 214.75 C921.13,216.54 920.05,218.00 919.25,218.00 C918.27,218.00 918.01,217.42 918.45,216.27 C919.05,214.71 921.55,205.85 924.26,195.70 C925.18,192.22 925.54,191.92 928.36,192.20 C931.39,192.49 931.53,192.74 934.67,203.50 C936.44,209.55 937.92,215.29 937.95,216.25 C938.04,219.27 936.21,218.16 934.98,214.45 L 933.81 210.91 L 928.19 211.20 C922.80,211.49 922.53,211.63 921.64,214.75 ZM 947.80 64.80 C946.54,66.06 936.82,66.49 935.67,65.33 C935.30,64.97 935.00,61.59 935.00,57.83 L 935.00 51.00 L 941.38 51.00 C947.16,51.00 947.82,51.21 948.37,53.25 C949.39,57.04 949.07,63.53 947.80,64.80 ZM 742.42 217.74 C741.00,217.47 738.41,217.57 736.67,217.96 C731.43,219.14 728.00,216.95 728.00,212.43 C728.00,209.46 730.37,207.72 735.34,207.06 C738.63,206.62 739.56,206.05 739.81,204.34 C740.18,201.74 737.35,200.55 733.07,201.48 C731.49,201.83 729.91,201.66 729.57,201.11 C729.22,200.54 730.43,199.82 732.34,199.46 C740.40,197.95 742.96,200.54 742.99,210.25 C742.99,213.41 743.45,216.00 744.00,216.00 C744.55,216.00 745.00,216.50 745.00,217.12 C745.00,217.78 743.95,218.03 742.42,217.74 ZM 507.75 217.69 C505.96,217.60 503.35,217.85 501.93,218.24 C498.11,219.29 495.00,216.72 495.00,212.48 C495.00,208.49 497.04,207.00 502.50,207.00 C505.87,207.00 506.11,206.80 505.82,204.25 C505.52,201.65 505.23,201.51 500.75,201.66 C496.07,201.82 494.49,200.79 497.58,199.61 C500.54,198.47 505.85,198.99 507.43,200.57 C508.53,201.67 509.00,204.06 509.00,208.51 C509.00,212.02 509.45,215.16 510.00,215.50 C512.03,216.76 510.91,217.85 507.75,217.69 ZM 703.75 217.80 C701.96,217.70 699.07,217.95 697.32,218.37 C694.78,218.98 693.71,218.71 692.07,217.07 C687.67,212.67 690.87,207.00 697.75,207.00 C701.50,207.00 702.96,204.86 700.91,202.39 C699.95,201.23 698.60,200.97 695.86,201.41 C691.78,202.06 689.64,200.60 693.26,199.63 C697.10,198.60 701.71,198.94 702.87,200.35 C703.49,201.09 704.15,204.78 704.35,208.55 C704.56,212.51 705.19,215.56 705.86,215.79 C708.29,216.60 706.84,217.99 703.75,217.80 ZM 905.75 217.69 C903.96,217.60 901.35,217.85 899.93,218.24 C896.11,219.29 893.00,216.72 893.00,212.48 C893.00,208.49 895.04,207.00 900.50,207.00 C903.87,207.00 904.11,206.80 903.82,204.25 C903.53,201.72 903.14,201.49 899.00,201.40 C892.82,201.26 892.28,201.11 894.00,200.00 C896.40,198.45 903.67,198.82 905.43,200.57 C906.53,201.67 907.00,204.06 907.00,208.51 C907.00,212.02 907.45,215.16 908.00,215.50 C910.03,216.76 908.91,217.85 905.75,217.69 ZM 546.25 217.77 C544.19,217.70 541.59,217.95 540.47,218.32 C537.22,219.40 534.00,216.49 534.00,212.48 C534.00,208.50 536.04,207.00 541.43,207.00 C544.54,207.00 545.00,206.69 545.00,204.57 C545.00,201.72 542.36,200.54 538.07,201.48 C536.49,201.83 534.93,201.69 534.61,201.17 C533.42,199.25 543.18,198.19 545.95,199.95 C546.90,200.55 547.53,203.18 547.80,207.68 C548.03,211.43 548.61,214.93 549.10,215.45 C550.79,217.24 549.99,217.89 546.25,217.77 ZM 323.75 217.76 C321.41,217.73 318.59,217.99 317.47,218.35 C314.53,219.29 311.00,216.46 311.02,213.19 C311.04,209.05 312.35,207.83 317.40,207.26 C322.74,206.66 323.54,205.89 321.95,202.90 C320.95,201.04 320.21,200.84 316.40,201.36 C313.98,201.69 312.00,201.57 312.00,201.09 C312.00,199.79 314.67,199.00 319.05,199.00 C323.93,199.00 325.00,200.79 325.00,208.97 C325.00,213.46 325.39,215.21 326.50,215.64 C329.37,216.74 327.97,217.82 323.75,217.76 ZM 402.75 217.69 C400.96,217.60 398.35,217.85 396.93,218.24 C393.11,219.29 390.00,216.72 390.00,212.48 C390.00,208.51 392.04,207.00 397.38,207.00 C401.49,207.00 402.08,206.34 400.87,203.12 C400.05,200.95 399.56,200.79 395.48,201.35 C393.02,201.69 391.00,201.57 391.00,201.09 C391.00,198.65 400.09,198.24 402.43,200.57 C403.53,201.67 404.00,204.06 404.00,208.51 C404.00,212.02 404.45,215.16 405.00,215.50 C407.03,216.76 405.91,217.85 402.75,217.69 ZM 1025.75 217.69 C1023.96,217.60 1021.35,217.85 1019.93,218.24 C1016.11,219.29 1013.00,216.72 1013.00,212.48 C1013.00,208.51 1015.04,207.00 1020.38,207.00 C1024.51,207.00 1025.52,205.84 1023.95,202.90 C1022.95,201.03 1022.22,200.84 1018.32,201.37 C1014.99,201.83 1013.94,201.67 1014.25,200.74 C1014.48,200.04 1016.78,199.36 1019.55,199.19 C1025.80,198.78 1027.00,200.30 1027.00,208.63 C1027.00,212.07 1027.45,215.16 1028.00,215.50 C1030.03,216.76 1028.91,217.85 1025.75,217.69 ZM 979.88 218.38 L 979.76 218.40 C977.98,218.75 977.09,218.93 976.23,218.86 C975.36,218.80 974.50,218.48 972.77,217.84 C969.12,216.51 967.29,210.30 968.94,204.81 C970.19,200.63 972.39,199.00 976.78,199.00 C980.62,199.00 983.00,201.80 983.00,206.33 L 983.00 210.00 L 977.00 210.00 C972.47,210.00 971.00,210.35 971.00,211.43 C971.00,214.16 974.05,216.00 978.57,216.00 C983.68,216.00 984.47,217.46 979.88,218.38 ZM 786.88 218.38 L 786.73 218.40 C784.62,218.83 783.67,219.02 782.78,218.87 C782.03,218.74 781.32,218.37 780.00,217.71 C776.36,215.87 774.67,211.67 775.46,206.42 C776.19,201.56 778.79,199.00 783.00,199.00 C787.41,199.00 790.00,201.61 790.00,206.06 L 790.00 210.00 L 784.00 210.00 C779.47,210.00 778.00,210.35 778.00,211.43 C778.00,214.16 781.05,216.00 785.57,216.00 C790.68,216.00 791.47,217.46 786.88,218.38 ZM 412.00 210.48 C412.00,216.58 411.71,218.00 410.46,218.00 C409.17,218.00 408.97,216.53 409.21,208.75 L 409.50 199.50 L 420.50 199.37 C426.55,199.31 432.29,199.66 433.25,200.16 C434.71,200.92 435.00,202.49 435.00,209.54 C435.00,214.51 434.59,218.00 434.00,218.00 C433.43,218.00 433.00,215.06 433.00,211.19 C433.00,202.72 431.66,200.48 427.18,201.46 L 424.00 202.16 L 424.00 210.08 C424.00,216.35 423.70,218.00 422.54,218.00 C421.42,218.00 421.02,216.25 420.79,210.36 C420.46,201.61 419.09,199.73 414.58,201.78 C412.14,202.89 412.00,203.37 412.00,210.48 ZM 258.88 218.38 C257.16,218.72 255.47,218.94 255.12,218.86 C254.78,218.79 253.49,218.53 252.26,218.30 C246.70,217.22 244.84,206.07 249.45,201.45 C254.42,196.49 262.45,199.65 261.81,206.31 C261.50,209.45 261.41,209.50 255.75,209.80 C251.05,210.04 250.00,210.42 250.00,211.85 C250.00,214.76 252.15,216.00 257.20,216.00 C262.61,216.00 263.62,217.43 258.88,218.38 ZM 451.88 218.38 L 451.63 218.42 C449.83,218.78 448.92,218.97 448.05,218.87 C447.13,218.78 446.25,218.38 444.40,217.57 C440.76,215.99 440.00,214.40 440.00,208.37 C440.00,204.97 440.58,203.33 442.45,201.45 C447.42,196.49 455.45,199.65 454.81,206.31 C454.50,209.45 454.41,209.50 448.75,209.80 C444.05,210.04 443.00,210.42 443.00,211.85 C443.00,214.76 445.15,216.00 450.20,216.00 C455.61,216.00 456.62,217.43 451.88,218.38 ZM 841.88 218.38 L 841.73 218.40 C839.62,218.83 838.67,219.02 837.78,218.87 C837.03,218.74 836.32,218.37 835.00,217.71 C831.36,215.87 829.67,211.67 830.46,206.42 C831.22,201.34 833.81,199.00 838.67,199.00 C842.57,199.00 845.00,201.97 845.00,206.72 L 845.00 210.00 L 839.00 210.00 C832.82,210.00 832.15,210.55 834.04,214.07 C834.85,215.58 836.15,216.00 840.04,216.00 C845.58,216.00 846.68,217.41 841.88,218.38 ZM 1008.42 218.39 C1007.55,218.73 1006.76,218.95 1006.67,218.88 C1006.58,218.82 1005.69,218.56 1004.69,218.30 C1002.27,217.67 1001.00,213.98 1001.00,207.55 C1001.00,201.43 999.65,200.45 994.25,202.67 C991.02,204.00 991.00,204.05 991.00,211.00 C991.00,216.56 990.69,218.00 989.50,218.00 C988.28,218.00 988.00,216.34 988.00,209.06 C988.00,200.58 989.15,197.01 990.94,199.91 C991.47,200.75 992.41,200.79 994.37,200.05 C995.85,199.49 997.39,199.07 997.78,199.13 C1000.08,199.47 1001.00,198.72 1001.00,196.50 C1001.00,193.03 1003.78,193.25 1004.18,196.75 C1004.45,199.08 1004.93,199.47 1007.32,199.30 C1010.99,199.05 1010.35,201.38 1006.63,201.82 C1003.94,202.14 1003.92,202.22 1004.21,208.82 C1004.49,215.28 1004.59,215.51 1007.25,215.82 C1010.29,216.17 1010.87,217.45 1008.42,218.39 ZM 618.75 218.01 C618.06,218.02 616.60,218.19 615.50,218.40 C609.43,219.52 606.00,216.04 606.00,208.73 C606.00,204.94 606.53,203.38 608.45,201.45 C613.42,196.49 621.45,199.65 620.81,206.31 C620.50,209.45 620.41,209.50 614.75,209.80 C610.05,210.04 609.00,210.42 609.00,211.85 C609.00,214.69 611.12,216.00 615.70,216.00 C618.07,216.00 620.00,216.45 620.00,217.00 C620.00,217.55 619.44,218.01 618.75,218.01 ZM 650.00 217.00 C650.00,217.58 646.67,218.00 642.00,218.00 L 634.00 218.00 L 634.00 192.00 L 642.08 192.00 C648.10,192.00 650.06,192.32 649.75,193.25 C649.50,194.02 646.99,194.61 643.17,194.80 L 637.00 195.10 L 637.00 204.00 L 642.56 204.00 C646.01,204.00 647.88,204.38 647.50,205.00 C647.16,205.55 644.66,206.00 641.94,206.00 L 637.00 206.00 L 637.00 216.00 L 643.50 216.00 C647.17,216.00 650.00,216.44 650.00,217.00 ZM 374.56 213.78 C376.55,216.63 381.50,216.80 382.96,214.07 C385.56,209.22 383.03,201.00 378.94,201.00 C373.91,201.00 371.18,208.95 374.56,213.78 ZM 674.67 215.33 C676.19,216.85 681.94,215.98 682.96,214.07 C684.54,211.13 684.22,204.36 682.43,202.57 C680.59,200.73 679.99,200.67 676.57,201.98 C674.21,202.87 674.00,203.44 674.00,208.81 C674.00,212.03 674.30,214.97 674.67,215.33 ZM 944.41 214.63 C945.13,216.50 950.49,216.36 952.43,214.43 C954.39,212.47 954.51,205.08 952.63,202.51 C951.48,200.93 950.72,200.79 947.88,201.60 C944.64,202.53 944.49,202.79 944.19,207.91 C944.02,210.86 944.12,213.88 944.41,214.63 ZM 590.04 214.07 C591.27,216.37 596.18,216.69 597.93,214.58 C598.62,213.75 598.98,210.78 598.80,207.33 C598.52,201.83 598.35,201.48 595.81,201.19 C590.41,200.57 586.95,208.29 590.04,214.07 ZM 269.65 214.17 C271.63,216.35 275.29,216.56 276.93,214.58 C277.62,213.75 277.98,210.78 277.80,207.33 C277.52,201.83 277.35,201.48 274.81,201.19 C269.12,200.53 265.52,209.60 269.65,214.17 ZM 759.91 214.39 C761.30,216.06 763.70,216.43 766.42,215.39 C767.65,214.92 768.00,213.26 768.00,207.89 C768.00,201.01 768.00,201.00 765.19,201.00 C760.73,201.00 759.00,202.93 758.77,208.14 C758.66,210.82 759.14,213.46 759.91,214.39 ZM 571.23 213.09 C569.09,220.41 566.74,226.59 566.01,226.83 C564.69,227.27 564.93,223.89 566.54,219.75 C566.98,218.60 566.74,218.00 565.84,218.00 C564.97,218.00 563.60,214.96 562.13,209.75 C560.84,205.21 559.57,200.94 559.31,200.25 C559.05,199.56 559.49,199.00 560.29,199.00 C561.26,199.00 562.53,201.71 564.06,207.00 C565.33,211.40 566.72,215.00 567.14,215.00 C567.57,215.00 568.88,211.74 570.05,207.75 C571.23,203.76 572.59,200.08 573.08,199.57 C575.33,197.21 574.84,200.79 571.23,213.09 ZM 229.67 205.33 C230.90,206.57 236.53,206.01 238.78,204.44 C240.95,202.92 241.61,199.74 240.39,196.58 C239.94,195.41 238.39,195.00 234.39,195.00 L 229.00 195.00 L 229.00 199.83 C229.00,202.49 229.30,204.97 229.67,205.33 ZM 815.88 218.38 L 815.60 218.43 C813.85,218.78 812.95,218.96 812.08,218.87 C811.13,218.78 810.22,218.36 808.24,217.51 C804.15,215.73 803.00,212.73 803.00,203.89 C803.00,197.81 803.32,196.59 805.45,194.45 C807.47,192.44 808.90,192.00 813.45,192.00 C817.50,192.00 819.00,192.37 819.00,193.38 C819.00,194.41 817.92,194.63 814.74,194.27 C811.46,193.90 809.90,194.26 807.99,195.81 C805.77,197.61 805.50,198.57 805.50,204.81 C805.50,213.84 807.17,216.00 814.15,216.00 C819.60,216.00 820.63,217.42 815.88,218.38 ZM 665.59 216.93 C663.49,218.67 657.84,219.13 655.00,217.78 C652.67,216.68 652.87,216.56 658.00,216.05 C662.98,215.55 663.50,215.27 663.50,213.10 C663.50,211.11 662.71,210.48 658.81,209.34 C653.90,207.91 652.32,205.73 653.50,202.00 C653.85,200.90 655.17,199.75 656.43,199.43 C659.98,198.54 665.30,199.35 665.79,200.86 C666.13,201.89 665.51,202.05 663.14,201.53 C659.06,200.63 656.00,201.69 656.00,204.00 C656.00,205.39 657.38,206.26 661.50,207.46 C666.75,208.98 667.00,209.21 667.00,212.41 C667.00,214.25 666.37,216.28 665.59,216.93 ZM 517.00 210.48 C517.00,216.58 516.71,218.00 515.46,218.00 C514.17,218.00 513.97,216.53 514.21,208.78 L 514.50 199.57 L 520.14 199.24 C528.03,198.80 529.00,199.99 529.00,210.07 C529.00,214.69 528.58,218.00 528.00,218.00 C527.45,218.00 526.99,215.41 526.99,212.25 C526.96,202.21 525.25,199.81 519.63,201.95 C517.11,202.91 517.00,203.27 517.00,210.48 ZM 354.00 210.48 C354.00,214.83 353.58,218.00 353.00,218.00 C352.41,218.00 352.00,214.24 352.00,208.71 L 352.00 199.43 L 358.22 199.46 C363.83,199.50 364.56,199.74 365.70,202.00 C366.40,203.38 366.98,207.54 366.99,211.25 C367.00,216.59 366.69,218.00 365.50,218.00 C364.30,218.00 364.00,216.50 364.00,210.48 C364.00,203.62 363.80,202.87 361.72,201.92 C360.15,201.20 358.60,201.20 356.72,201.92 C354.09,202.92 354.00,203.21 354.00,210.48 ZM 712.21 210.28 C712.05,214.54 711.47,218.00 710.92,218.00 C710.31,218.00 710.04,214.41 710.21,208.75 L 710.50 199.50 L 716.46 199.50 C721.82,199.50 722.56,199.75 723.70,202.00 C724.40,203.38 724.98,207.54 724.99,211.25 C725.00,216.59 724.69,218.00 723.50,218.00 C722.30,218.00 722.00,216.51 722.00,210.62 C722.00,201.89 720.82,200.19 715.73,201.65 L 712.50 202.57 ZM 852.00 210.48 C852.00,214.83 851.58,218.00 851.00,218.00 C850.41,218.00 850.00,214.50 850.00,209.50 C850.00,204.82 849.99,200.69 849.99,200.31 C849.97,199.02 860.57,198.96 862.31,200.25 C864.47,201.84 865.29,217.02 863.25,217.73 C862.34,218.05 862.00,216.56 861.99,212.33 C861.96,202.21 860.26,199.81 854.63,201.95 C852.11,202.91 852.00,203.27 852.00,210.48 ZM 490.75 218.01 C490.06,218.02 488.60,218.23 487.50,218.47 C484.78,219.08 481.36,217.54 480.07,215.12 C478.19,211.62 478.75,203.25 481.00,201.00 C483.13,198.87 492.00,198.06 492.00,200.00 C492.00,200.55 490.90,201.00 489.57,201.00 C488.23,201.00 485.98,201.44 484.57,201.98 C482.25,202.85 482.00,203.48 482.00,208.28 C482.00,214.60 483.12,216.00 488.20,216.00 C490.29,216.00 492.00,216.45 492.00,217.00 C492.00,217.55 491.44,218.01 490.75,218.01 ZM 339.42 218.39 C337.23,219.23 335.80,219.11 333.75,217.92 C332.33,217.10 332.00,215.50 332.00,209.56 C332.00,203.49 331.70,202.10 330.25,201.54 C328.58,200.89 328.58,200.80 330.25,199.57 C331.21,198.86 332.00,197.32 332.00,196.14 C332.00,193.01 333.81,193.52 334.18,196.75 C334.43,198.91 335.09,199.57 337.25,199.82 C340.96,200.24 340.76,202.00 337.00,202.00 C334.04,202.00 334.00,202.06 334.00,207.42 C334.00,214.67 334.64,216.00 338.11,216.00 C341.22,216.00 341.99,217.40 339.42,218.39 ZM 878.75 218.37 L 878.62 218.41 C877.27,218.77 876.57,218.95 875.91,218.89 C875.18,218.82 874.49,218.46 873.02,217.72 C869.45,215.91 867.84,212.23 868.36,207.04 C868.91,201.52 871.65,199.00 877.11,199.00 C879.25,199.00 881.00,199.45 881.00,200.00 C881.00,200.55 879.75,201.00 878.22,201.00 C873.46,201.00 871.00,203.52 871.00,208.40 C871.00,213.53 873.22,216.00 877.83,216.00 C881.49,216.00 882.06,217.48 878.75,218.37 ZM 924.00 207.82 C924.00,209.16 931.58,209.49 932.39,208.18 C933.22,206.83 929.66,195.00 928.42,195.00 C927.39,195.00 924.00,204.82 924.00,207.82 ZM 309.00 217.05 C309.00,217.57 305.85,218.00 302.00,218.00 L 295.00 218.00 L 295.00 205.00 C295.00,188.52 296.83,187.49 297.22,203.75 L 297.50 215.50 L 303.25 215.80 C306.41,215.96 309.00,216.53 309.00,217.05 ZM 462.00 211.01 C462.00,216.56 461.69,218.00 460.50,218.00 C459.28,218.00 459.00,216.34 459.00,209.06 C459.00,200.58 460.15,197.01 461.94,199.91 C462.47,200.76 463.41,200.79 465.40,200.04 C468.79,198.75 469.00,198.75 469.00,200.05 C469.00,200.63 467.42,201.76 465.50,202.56 L 462.00 204.03 ZM 1016.20 214.80 C1017.49,216.09 1020.87,216.37 1023.42,215.39 C1024.36,215.03 1025.00,213.61 1025.00,211.89 C1025.00,209.33 1024.65,209.00 1021.93,209.00 C1016.26,209.00 1013.34,211.94 1016.20,214.80 ZM 314.25 214.85 C314.93,215.53 317.07,215.96 319.00,215.80 C322.15,215.53 322.53,215.17 322.81,212.25 C323.11,209.14 322.97,209.00 319.63,209.00 C316.47,209.00 313.00,211.02 313.00,212.87 C313.00,213.27 313.56,214.16 314.25,214.85 ZM 778.49 206.99 C778.84,207.55 780.86,208.00 783.00,208.00 C787.28,208.00 788.44,206.98 787.51,204.04 C786.79,201.78 783.83,200.60 781.05,201.48 C778.96,202.15 777.47,205.34 778.49,206.99 ZM 833.49 206.99 C833.84,207.55 835.86,208.00 838.00,208.00 C842.28,208.00 843.44,206.98 842.51,204.04 C841.79,201.78 838.83,200.60 836.05,201.48 C833.96,202.15 832.47,205.34 833.49,206.99 ZM 971.49 206.99 C971.84,207.55 973.86,208.00 976.00,208.00 C980.28,208.00 981.44,206.98 980.51,204.04 C979.79,201.78 976.83,200.60 974.05,201.48 C971.96,202.15 970.47,205.34 971.49,206.99 ZM 693.71 215.38 C694.11,215.77 696.02,215.96 697.96,215.80 C701.15,215.53 701.53,215.18 701.81,212.25 C702.10,209.33 701.86,209.00 699.50,209.00 C694.51,209.00 691.10,212.76 693.71,215.38 ZM 393.25 214.85 C393.93,215.53 395.83,215.96 397.46,215.80 C399.92,215.55 400.54,214.94 401.09,212.25 C401.71,209.17 401.59,209.00 398.81,209.00 C393.21,209.00 390.37,211.97 393.25,214.85 ZM 498.25 214.85 C498.93,215.53 500.83,215.96 502.46,215.80 C504.92,215.55 505.54,214.94 506.09,212.25 C506.71,209.17 506.59,209.00 503.81,209.00 C498.21,209.00 495.37,211.97 498.25,214.85 ZM 888.00 208.50 C888.00,216.28 887.73,218.00 886.50,218.00 C885.27,218.00 885.00,216.28 885.00,208.50 C885.00,200.72 885.27,199.00 886.50,199.00 C887.73,199.00 888.00,200.72 888.00,208.50 ZM 250.00 205.48 C250.00,207.81 250.35,208.00 254.57,208.00 C258.92,208.00 259.12,207.88 258.82,205.35 C258.38,201.72 255.87,200.28 252.58,201.78 C250.80,202.59 250.00,203.74 250.00,205.48 ZM 609.00 205.54 C609.00,207.79 609.38,208.00 613.50,208.00 C617.64,208.00 618.00,207.80 618.00,205.48 C618.00,203.80 617.21,202.60 615.63,201.88 C612.37,200.39 609.00,202.25 609.00,205.54 ZM 731.33 214.42 C731.82,215.69 732.94,216.04 735.74,215.81 C739.19,215.53 739.53,215.23 739.82,212.19 C740.13,208.92 740.08,208.88 736.42,209.19 C732.41,209.53 730.29,211.71 731.33,214.42 ZM 443.36 206.50 C443.74,207.49 445.31,208.00 447.97,208.00 C451.55,208.00 452.00,207.73 452.00,205.62 C452.00,202.43 449.63,200.62 446.47,201.42 C443.69,202.12 442.45,204.14 443.36,206.50 ZM 537.25 214.85 C537.93,215.53 539.84,215.96 541.50,215.80 C544.08,215.54 544.54,215.05 544.81,212.25 C545.10,209.33 544.86,209.00 542.50,209.00 C537.19,209.00 534.45,212.05 537.25,214.85 ZM 896.25 214.85 C896.93,215.53 898.84,215.96 900.50,215.80 C903.08,215.54 903.54,215.05 903.81,212.25 C904.10,209.33 903.86,209.00 901.50,209.00 C896.19,209.00 893.45,212.05 896.25,214.85 ZM 346.00 208.42 C346.00,216.37 345.74,218.00 344.46,218.00 C343.17,218.00 342.97,216.54 343.21,208.83 C343.41,202.60 343.90,199.53 344.75,199.25 C345.69,198.94 346.00,201.20 346.00,208.42 ZM 964.00 208.42 C964.00,216.37 963.74,218.00 962.46,218.00 C961.17,218.00 960.97,216.54 961.21,208.83 C961.41,202.60 961.90,199.53 962.75,199.25 C963.69,198.94 964.00,201.20 964.00,208.42 ZM 825.00 208.42 C825.00,215.90 824.70,218.00 823.62,218.00 C821.73,218.00 821.86,199.88 823.75,199.25 C824.69,198.94 825.00,201.19 825.00,208.42 ZM 474.43 215.25 C474.53,216.92 474.08,218.00 473.30,218.00 C472.33,218.00 472.00,215.61 472.00,208.50 C472.00,197.62 473.93,195.13 474.13,205.75 C474.20,209.46 474.33,213.74 474.43,215.25 ZM 346.00 192.94 C346.00,194.20 344.44,195.11 343.64,194.31 C342.51,193.18 342.95,192.00 344.50,192.00 C345.33,192.00 346.00,192.42 346.00,192.94 ZM 825.00 192.94 C825.00,194.20 823.44,195.11 822.64,194.31 C821.51,193.18 821.95,192.00 823.50,192.00 C824.33,192.00 825.00,192.42 825.00,192.94 ZM 888.00 192.94 C888.00,194.20 886.44,195.11 885.64,194.31 C884.51,193.18 884.95,192.00 886.50,192.00 C887.33,192.00 888.00,192.42 888.00,192.94 ZM 964.00 192.94 C964.00,194.20 962.44,195.11 961.64,194.31 C960.51,193.18 960.95,192.00 962.50,192.00 C963.33,192.00 964.00,192.42 964.00,192.94 ZM 473.60 192.27 C473.94,192.60 474.02,193.44 473.79,194.14 C473.45,195.15 473.21,195.15 472.58,194.13 C471.75,192.78 472.59,191.25 473.60,192.27 Z" fill="rgb(56,56,56)"/>
<path d="M 104.00 191.00 L 104.00 230.00 L 54.29 230.00 L 53.56 177.25 C53.15,148.24 52.96,108.75 53.12,89.50 L 53.42 54.50 L 29.71 54.23 L 6.00 53.96 L 6.00 15.00 L 55.00 15.00 L 55.00 54.00 L 198.00 54.00 L 198.00 111.96 L 150.50 112.50 L 150.24 151.75 L 149.98 191.00 Z" fill="rgb(113,101,129)"/>
<path d="M 103.51 230.00 L 103.50 230.50 L 78.93 230.77 C65.42,230.91 54.06,230.73 53.68,230.35 C53.31,229.97 53.00,216.69 53.00,200.83 L 53.00 172.00 L 6.00 172.00 L 6.00 53.96 L 29.71 54.23 L 53.42 54.50 L 53.12 89.50 C52.96,108.75 53.15,148.24 53.56,177.25 L 54.29 230.00 ZM 150.50 112.50 L 198.00 111.96 L 198.00 152.00 L 151.00 152.00 L 151.00 191.00 L 149.98 191.00 L 150.24 151.75 ZM 767.29 153.03 C761.91,153.50 755.70,154.12 753.50,154.40 C749.80,154.88 742.14,153.45 737.21,151.50 C741.24,152.78 747.22,152.94 758.60,152.77 C766.14,152.66 771.02,152.48 774.08,152.17 C772.13,152.50 769.75,152.81 767.29,153.03 ZM 647.82 153.01 C642.14,153.54 635.70,154.19 633.50,154.44 C631.30,154.70 626.85,154.25 623.60,153.44 C621.99,153.04 620.48,152.58 619.06,152.03 C621.96,152.88 625.87,152.96 637.00,152.88 C643.26,152.84 649.37,152.66 653.11,152.44 C651.51,152.63 649.70,152.83 647.82,153.01 ZM 529.82 153.01 C524.14,153.54 517.70,154.20 515.50,154.47 C512.29,154.86 506.96,153.91 502.30,152.37 C505.07,152.92 509.25,152.95 518.91,152.88 C525.21,152.84 531.37,152.66 535.12,152.44 C533.51,152.63 531.70,152.83 529.82,153.01 ZM 993.31 152.91 C990.11,153.44 986.15,154.13 984.50,154.44 C982.32,154.86 978.69,154.09 975.25,152.74 C980.09,153.51 993.90,152.64 1000.76,151.25 C998.35,151.90 995.48,152.54 993.31,152.91 ZM 484.79 106.23 C484.68,108.68 484.64,111.77 484.64,116.00 C484.64,120.78 484.80,125.44 485.08,128.99 C484.19,123.51 483.96,117.20 484.43,110.23 C484.52,108.85 484.64,107.52 484.79,106.23 ZM 489.07 141.75 C491.28,145.30 494.16,148.41 497.03,150.19 C496.19,149.75 495.45,149.29 494.85,148.83 C492.57,147.10 490.64,144.71 489.07,141.75 ZM 539.89 151.76 C541.39,151.21 541.57,150.21 541.79,146.47 L 542.00 142.97 L 542.00 146.17 C542.00,148.76 541.58,151.14 541.07,151.46 C540.94,151.54 540.53,151.64 539.89,151.76 ZM 657.89 151.76 C659.39,151.21 659.57,150.21 659.79,146.49 L 660.00 142.98 L 660.00 146.19 C660.00,148.77 659.58,151.14 659.07,151.46 C658.94,151.54 658.53,151.64 657.89,151.76 ZM 724.04 136.66 C722.70,133.21 722.54,129.91 722.54,116.50 C722.54,126.63 722.81,132.38 724.04,136.66 ZM 608.86 144.91 C604.59,139.63 602.52,131.96 602.18,121.03 C602.58,131.80 604.75,139.62 608.86,144.91 ZM 491.24 87.75 C496.60,80.65 505.15,77.61 517.35,78.19 C505.26,77.61 496.74,80.70 491.24,87.75 ZM 964.72 143.83 C965.93,146.04 967.68,148.15 969.57,149.77 C968.98,149.35 968.44,148.93 967.99,148.49 C966.69,147.24 965.59,145.65 964.72,143.83 ZM 1026.80 148.37 L 1026.50 153.50 L 1025.14 153.47 C1026.51,153.11 1026.58,152.09 1026.80,148.37 ZM 962.06 130.32 C962.18,124.05 964.02,118.00 967.61,114.83 C964.25,117.80 962.26,123.89 962.06,130.32 ZM 1007.31 149.37 C1008.64,149.15 1009.43,149.44 1010.82,150.24 C1009.38,149.49 1008.50,149.22 1007.31,149.37 ZM 602.68 103.99 C603.09,99.91 603.82,97.81 605.46,94.19 C606.60,91.68 607.90,89.49 609.38,87.60 C607.90,89.49 606.60,91.68 605.47,94.19 C603.83,97.80 603.10,99.93 602.68,103.99 ZM 104.00 191.00 L 104.04 191.00 L 104.00 194.08 ZM 778.48 151.01 C778.87,150.63 779.20,150.09 779.45,149.40 C779.20,150.12 778.89,150.67 778.54,150.96 C778.52,150.98 778.50,151.00 778.48,151.01 Z" fill="rgb(135,171,165)"/>
<path d="M 0.00 120.00 L 0.00 0.00 L 519.00 0.00 L 1038.00 0.00 L 1038.00 120.00 L 1038.00 240.00 L 519.00 240.00 L 0.00 240.00 L 0.00 120.00 ZM 103.77 210.75 L 104.04 191.00 L 127.52 191.00 L 151.00 191.00 L 151.00 171.50 L 151.00 152.00 L 174.50 152.00 L 198.00 152.00 L 198.00 103.00 L 198.00 54.00 L 126.50 54.00 L 55.00 54.00 L 55.00 34.50 L 55.00 15.00 L 30.50 15.00 L 6.00 15.00 L 6.00 93.50 L 6.00 172.00 L 29.50 172.00 L 53.00 172.00 L 53.00 200.83 C53.00,216.69 53.31,229.97 53.68,230.35 C54.06,230.73 65.42,230.91 78.93,230.77 L 103.50 230.50 L 103.77 210.75 ZM 571.23 213.09 C574.84,200.79 575.33,197.21 573.08,199.57 C572.59,200.08 571.23,203.76 570.05,207.75 C568.88,211.74 567.57,215.00 567.14,215.00 C566.72,215.00 565.33,211.40 564.06,207.00 C562.53,201.71 561.26,199.00 560.29,199.00 C559.49,199.00 559.05,199.56 559.31,200.25 C559.57,200.94 560.84,205.21 562.13,209.75 C563.60,214.96 564.97,218.00 565.84,218.00 C566.74,218.00 566.98,218.60 566.54,219.75 C564.93,223.89 564.69,227.27 566.01,226.83 C566.74,226.59 569.09,220.41 571.23,213.09 ZM 674.00 222.38 C674.00,217.92 674.09,217.78 676.66,218.28 C682.85,219.46 687.00,215.55 687.00,208.52 C687.00,200.66 684.33,198.38 676.51,199.55 L 672.00 200.23 L 672.00 213.61 C672.00,221.87 672.38,227.00 673.00,227.00 C673.55,227.00 674.00,224.92 674.00,222.38 ZM 258.88 218.38 C263.62,217.43 262.61,216.00 257.20,216.00 C252.15,216.00 250.00,214.76 250.00,211.85 C250.00,210.42 251.05,210.04 255.75,209.80 C261.41,209.50 261.50,209.45 261.81,206.31 C262.45,199.65 254.42,196.49 249.45,201.45 C244.84,206.07 246.70,217.22 252.26,218.30 C253.49,218.53 254.78,218.79 255.12,218.86 C255.47,218.94 257.16,218.72 258.88,218.38 ZM 277.75 218.01 C279.97,218.00 280.00,217.83 280.00,204.50 C280.00,196.74 279.60,191.00 279.06,191.00 C278.54,191.00 277.98,192.69 277.81,194.75 C277.51,198.36 277.34,198.52 273.11,199.09 C266.84,199.92 265.30,202.57 265.90,211.50 C266.15,215.32 270.45,219.38 273.40,218.59 C274.55,218.28 276.51,218.02 277.75,218.01 ZM 323.75 217.76 C327.97,217.82 329.37,216.74 326.50,215.64 C325.39,215.21 325.00,213.46 325.00,208.97 C325.00,200.79 323.93,199.00 319.05,199.00 C314.67,199.00 312.00,199.79 312.00,201.09 C312.00,201.57 313.98,201.69 316.40,201.36 C320.21,200.84 320.95,201.04 321.95,202.90 C323.54,205.89 322.74,206.66 317.40,207.26 C312.35,207.83 311.04,209.05 311.02,213.19 C311.00,216.46 314.53,219.29 317.47,218.35 C318.59,217.99 321.41,217.73 323.75,217.76 ZM 339.42 218.39 C341.99,217.40 341.22,216.00 338.11,216.00 C334.64,216.00 334.00,214.67 334.00,207.42 C334.00,202.06 334.04,202.00 337.00,202.00 C340.76,202.00 340.96,200.24 337.25,199.82 C335.09,199.57 334.43,198.91 334.18,196.75 C333.81,193.52 332.00,193.01 332.00,196.14 C332.00,197.32 331.21,198.86 330.25,199.57 C328.58,200.80 328.58,200.89 330.25,201.54 C331.70,202.10 332.00,203.49 332.00,209.56 C332.00,215.50 332.33,217.10 333.75,217.92 C335.80,219.11 337.23,219.23 339.42,218.39 ZM 384.25 216.27 C385.56,215.08 386.00,213.12 386.00,208.40 C386.00,203.04 385.67,201.88 383.78,200.56 C382.56,199.70 380.18,199.00 378.50,199.00 C376.82,199.00 374.44,199.70 373.22,200.56 C371.33,201.88 371.00,203.04 371.00,208.40 C371.00,214.75 372.03,216.80 376.00,218.31 C378.13,219.12 382.20,218.12 384.25,216.27 ZM 402.75 217.69 C405.91,217.85 407.03,216.76 405.00,215.50 C404.45,215.16 404.00,212.02 404.00,208.51 C404.00,204.06 403.53,201.67 402.43,200.57 C400.09,198.24 391.00,198.65 391.00,201.09 C391.00,201.57 393.02,201.69 395.48,201.35 C399.56,200.79 400.05,200.95 400.87,203.12 C402.08,206.34 401.49,207.00 397.38,207.00 C392.04,207.00 390.00,208.51 390.00,212.48 C390.00,216.72 393.11,219.29 396.93,218.24 C398.35,217.85 400.96,217.60 402.75,217.69 ZM 451.88 218.38 C456.62,217.43 455.61,216.00 450.20,216.00 C445.15,216.00 443.00,214.76 443.00,211.85 C443.00,210.42 444.05,210.04 448.75,209.80 C454.41,209.50 454.50,209.45 454.81,206.31 C455.45,199.65 447.42,196.49 442.45,201.45 C440.58,203.33 440.00,204.97 440.00,208.37 C440.00,214.40 440.76,215.99 444.40,217.57 C448.10,219.18 447.93,219.16 451.88,218.38 ZM 490.75 218.01 C491.44,218.01 492.00,217.55 492.00,217.00 C492.00,216.45 490.29,216.00 488.20,216.00 C483.12,216.00 482.00,214.60 482.00,208.28 C482.00,203.48 482.25,202.85 484.57,201.98 C485.98,201.44 488.23,201.00 489.57,201.00 C490.90,201.00 492.00,200.55 492.00,200.00 C492.00,198.06 483.13,198.87 481.00,201.00 C478.75,203.25 478.19,211.62 480.07,215.12 C481.36,217.54 484.78,219.08 487.50,218.47 C488.60,218.23 490.06,218.02 490.75,218.01 ZM 507.75 217.69 C510.91,217.85 512.03,216.76 510.00,215.50 C509.45,215.16 509.00,212.02 509.00,208.51 C509.00,204.06 508.53,201.67 507.43,200.57 C505.85,198.99 500.54,198.47 497.58,199.61 C494.49,200.79 496.07,201.82 500.75,201.66 C505.23,201.51 505.52,201.65 505.82,204.25 C506.11,206.80 505.87,207.00 502.50,207.00 C497.04,207.00 495.00,208.49 495.00,212.48 C495.00,216.72 498.11,219.29 501.93,218.24 C503.35,217.85 505.96,217.60 507.75,217.69 ZM 546.25 217.77 C549.99,217.89 550.79,217.24 549.10,215.45 C548.61,214.93 548.03,211.43 547.80,207.68 C547.53,203.18 546.90,200.55 545.95,199.95 C543.18,198.19 533.42,199.25 534.61,201.17 C534.93,201.69 536.49,201.83 538.07,201.48 C542.36,200.54 545.00,201.72 545.00,204.57 C545.00,206.69 544.54,207.00 541.43,207.00 C536.04,207.00 534.00,208.50 534.00,212.48 C534.00,216.49 537.22,219.40 540.47,218.32 C541.59,217.95 544.19,217.70 546.25,217.77 ZM 598.08 218.00 L 601.00 218.00 L 601.00 204.50 C601.00,196.74 600.60,191.00 600.06,191.00 C599.54,191.00 598.98,192.69 598.81,194.75 C598.51,198.33 598.31,198.53 594.34,199.06 C588.90,199.78 587.39,201.16 586.59,206.15 C585.45,213.30 589.34,219.89 593.83,218.43 C594.56,218.19 596.48,218.00 598.08,218.00 ZM 618.75 218.01 C619.44,218.01 620.00,217.55 620.00,217.00 C620.00,216.45 618.07,216.00 615.70,216.00 C611.12,216.00 609.00,214.69 609.00,211.85 C609.00,210.42 610.05,210.04 614.75,209.80 C620.41,209.50 620.50,209.45 620.81,206.31 C621.45,199.65 613.42,196.49 608.45,201.45 C606.53,203.38 606.00,204.94 606.00,208.73 C606.00,216.04 609.43,219.52 615.50,218.40 C616.60,218.19 618.06,218.02 618.75,218.01 ZM 665.59 216.93 C666.37,216.28 667.00,214.25 667.00,212.41 C667.00,209.21 666.75,208.98 661.50,207.46 C657.38,206.26 656.00,205.39 656.00,204.00 C656.00,201.69 659.06,200.63 663.14,201.53 C665.51,202.05 666.13,201.89 665.79,200.86 C665.30,199.35 659.98,198.54 656.43,199.43 C655.17,199.75 653.85,200.90 653.50,202.00 C652.32,205.73 653.90,207.91 658.81,209.34 C662.71,210.48 663.50,211.11 663.50,213.10 C663.50,215.27 662.98,215.55 658.00,216.05 C652.87,216.56 652.67,216.68 655.00,217.78 C657.84,219.13 663.49,218.67 665.59,216.93 ZM 703.75 217.80 C706.84,217.99 708.29,216.60 705.86,215.79 C705.19,215.56 704.56,212.51 704.35,208.55 C704.15,204.78 703.49,201.09 702.87,200.35 C701.71,198.94 697.10,198.60 693.26,199.63 C689.64,200.60 691.78,202.06 695.86,201.41 C698.60,200.97 699.95,201.23 700.91,202.39 C702.96,204.86 701.50,207.00 697.75,207.00 C690.87,207.00 687.67,212.67 692.07,217.07 C693.71,218.71 694.78,218.98 697.32,218.37 C699.07,217.95 701.96,217.70 703.75,217.80 ZM 742.42 217.74 C743.95,218.03 745.00,217.78 745.00,217.12 C745.00,216.50 744.55,216.00 744.00,216.00 C743.45,216.00 742.99,213.41 742.99,210.25 C742.96,200.54 740.40,197.95 732.34,199.46 C730.43,199.82 729.22,200.54 729.57,201.11 C729.91,201.66 731.49,201.83 733.07,201.48 C737.35,200.55 740.18,201.74 739.81,204.34 C739.56,206.05 738.63,206.62 735.34,207.06 C730.37,207.72 728.00,209.46 728.00,212.43 C728.00,216.95 731.43,219.14 736.67,217.96 C738.41,217.57 741.00,217.47 742.42,217.74 ZM 768.75 217.85 C770.98,217.98 771.00,217.85 771.00,204.49 C771.00,193.17 770.76,191.00 769.50,191.00 C768.43,191.00 768.00,192.10 768.00,194.87 C768.00,198.74 768.00,198.74 763.31,199.27 C757.38,199.94 756.00,201.79 756.00,209.12 C756.00,214.16 756.33,215.11 758.71,216.98 C760.66,218.52 762.12,218.92 763.96,218.42 C765.36,218.03 767.51,217.78 768.75,217.85 ZM 786.88 218.38 C791.47,217.46 790.68,216.00 785.57,216.00 C781.05,216.00 778.00,214.16 778.00,211.43 C778.00,210.35 779.47,210.00 784.00,210.00 L 790.00 210.00 L 790.00 206.06 C790.00,201.61 787.41,199.00 783.00,199.00 C778.79,199.00 776.19,201.56 775.46,206.42 C774.67,211.67 776.36,215.87 780.00,217.71 C782.93,219.19 782.85,219.18 786.88,218.38 ZM 815.88 218.38 C820.63,217.42 819.60,216.00 814.15,216.00 C807.17,216.00 805.50,213.84 805.50,204.81 C805.50,198.57 805.77,197.61 807.99,195.81 C809.90,194.26 811.46,193.90 814.74,194.27 C817.92,194.63 819.00,194.41 819.00,193.38 C819.00,192.37 817.50,192.00 813.45,192.00 C808.90,192.00 807.47,192.44 805.45,194.45 C803.32,196.59 803.00,197.81 803.00,203.89 C803.00,212.73 804.15,215.73 808.24,217.51 C812.11,219.19 811.92,219.17 815.88,218.38 ZM 841.88 218.38 C846.68,217.41 845.58,216.00 840.04,216.00 C836.15,216.00 834.85,215.58 834.04,214.07 C832.15,210.55 832.82,210.00 839.00,210.00 L 845.00 210.00 L 845.00 206.72 C845.00,201.97 842.57,199.00 838.67,199.00 C833.81,199.00 831.22,201.34 830.46,206.42 C829.67,211.67 831.36,215.87 835.00,217.71 C837.93,219.19 837.85,219.18 841.88,218.38 ZM 878.75 218.37 C882.06,217.48 881.49,216.00 877.83,216.00 C873.22,216.00 871.00,213.53 871.00,208.40 C871.00,203.52 873.46,201.00 878.22,201.00 C879.75,201.00 881.00,200.55 881.00,200.00 C881.00,199.45 879.25,199.00 877.11,199.00 C871.65,199.00 868.91,201.52 868.36,207.04 C867.84,212.23 869.45,215.91 873.02,217.72 C875.89,219.17 875.80,219.16 878.75,218.37 ZM 905.75 217.69 C908.91,217.85 910.03,216.76 908.00,215.50 C907.45,215.16 907.00,212.02 907.00,208.51 C907.00,204.06 906.53,201.67 905.43,200.57 C903.67,198.82 896.40,198.45 894.00,200.00 C892.28,201.11 892.82,201.26 899.00,201.40 C903.14,201.49 903.53,201.72 903.82,204.25 C904.11,206.80 903.87,207.00 900.50,207.00 C895.04,207.00 893.00,208.49 893.00,212.48 C893.00,216.72 896.11,219.29 899.93,218.24 C901.35,217.85 903.96,217.60 905.75,217.69 ZM 954.91 216.50 C956.87,214.56 957.41,205.12 955.75,202.00 C954.61,199.85 953.73,199.50 949.46,199.50 L 944.50 199.50 L 944.19 195.25 C944.02,192.91 943.46,191.00 942.94,191.00 C942.40,191.00 942.00,196.69 942.00,204.43 C942.00,216.36 942.20,217.91 943.75,218.35 C946.56,219.16 953.38,218.03 954.91,216.50 ZM 979.88 218.38 C984.47,217.46 983.68,216.00 978.57,216.00 C974.05,216.00 971.00,214.16 971.00,211.43 C971.00,210.35 972.47,210.00 977.00,210.00 L 983.00 210.00 L 983.00 206.33 C983.00,201.80 980.62,199.00 976.78,199.00 C972.39,199.00 970.19,200.63 968.94,204.81 C967.29,210.30 969.12,216.51 972.77,217.84 C976.26,219.12 976.18,219.11 979.88,218.38 ZM 1008.42 218.39 C1010.87,217.45 1010.29,216.17 1007.25,215.82 C1004.59,215.51 1004.49,215.28 1004.21,208.82 C1003.92,202.22 1003.94,202.14 1006.63,201.82 C1010.35,201.38 1010.99,199.05 1007.32,199.30 C1004.93,199.47 1004.45,199.08 1004.18,196.75 C1003.78,193.25 1001.00,193.03 1001.00,196.50 C1001.00,198.72 1000.08,199.47 997.78,199.13 C997.39,199.07 995.85,199.49 994.37,200.05 C992.41,200.79 991.47,200.75 990.94,199.91 C989.15,197.01 988.00,200.58 988.00,209.06 C988.00,216.34 988.28,218.00 989.50,218.00 C990.69,218.00 991.00,216.56 991.00,211.00 C991.00,204.05 991.02,204.00 994.25,202.67 C999.65,200.45 1001.00,201.43 1001.00,207.55 C1001.00,213.98 1002.27,217.67 1004.69,218.30 C1005.69,218.56 1006.58,218.82 1006.67,218.88 C1006.76,218.95 1007.55,218.73 1008.42,218.39 ZM 1025.75 217.69 C1028.91,217.85 1030.03,216.76 1028.00,215.50 C1027.45,215.16 1027.00,212.07 1027.00,208.63 C1027.00,200.30 1025.80,198.78 1019.55,199.19 C1016.78,199.36 1014.48,200.04 1014.25,200.74 C1013.94,201.67 1014.99,201.83 1018.32,201.37 C1022.22,200.84 1022.95,201.03 1023.95,202.90 C1025.52,205.84 1024.51,207.00 1020.38,207.00 C1015.04,207.00 1013.00,208.51 1013.00,212.48 C1013.00,216.72 1016.11,219.29 1019.93,218.24 C1021.35,217.85 1023.96,217.60 1025.75,217.69 ZM 229.00 213.00 L 229.00 208.00 L 232.83 208.00 C236.45,208.00 236.79,208.28 239.00,213.00 C240.29,215.75 241.94,218.00 242.67,218.00 C244.45,218.00 244.39,217.71 241.53,212.06 C239.46,207.98 239.30,207.10 240.55,206.62 C242.68,205.80 244.23,201.04 243.55,197.41 C242.81,193.44 239.71,192.00 231.95,192.00 L 226.00 192.00 L 226.00 205.00 C226.00,215.89 226.24,218.00 227.50,218.00 C228.63,218.00 229.00,216.78 229.00,213.00 ZM 309.00 217.05 C309.00,216.53 306.41,215.96 303.25,215.80 L 297.50 215.50 L 297.22 203.75 C296.83,187.49 295.00,188.52 295.00,205.00 L 295.00 218.00 L 302.00 218.00 C305.85,218.00 309.00,217.57 309.00,217.05 ZM 346.00 208.42 C346.00,201.20 345.69,198.94 344.75,199.25 C343.90,199.53 343.41,202.60 343.21,208.83 C342.97,216.54 343.17,218.00 344.46,218.00 C345.74,218.00 346.00,216.37 346.00,208.42 ZM 354.00 210.48 C354.00,203.21 354.09,202.92 356.72,201.92 C358.60,201.20 360.15,201.20 361.72,201.92 C363.80,202.87 364.00,203.62 364.00,210.48 C364.00,216.50 364.30,218.00 365.50,218.00 C366.69,218.00 367.00,216.59 366.99,211.25 C366.98,207.54 366.40,203.38 365.70,202.00 C364.56,199.74 363.83,199.50 358.22,199.46 L 352.00 199.43 L 352.00 208.71 C352.00,214.24 352.41,218.00 353.00,218.00 C353.58,218.00 354.00,214.83 354.00,210.48 ZM 412.00 210.48 C412.00,203.37 412.14,202.89 414.58,201.78 C419.09,199.73 420.46,201.61 420.79,210.36 C421.02,216.25 421.42,218.00 422.54,218.00 C423.70,218.00 424.00,216.35 424.00,210.08 L 424.00 202.16 L 427.18 201.46 C431.66,200.48 433.00,202.72 433.00,211.19 C433.00,215.06 433.43,218.00 434.00,218.00 C434.59,218.00 435.00,214.51 435.00,209.54 C435.00,202.49 434.71,200.92 433.25,200.16 C432.29,199.66 426.55,199.31 420.50,199.37 L 409.50 199.50 L 409.21 208.75 C408.97,216.53 409.17,218.00 410.46,218.00 C411.71,218.00 412.00,216.58 412.00,210.48 ZM 462.00 211.01 L 462.00 204.03 L 465.50 202.56 C467.42,201.76 469.00,200.63 469.00,200.05 C469.00,198.75 468.79,198.75 465.40,200.04 C463.41,200.79 462.47,200.76 461.94,199.91 C460.15,197.01 459.00,200.58 459.00,209.06 C459.00,216.34 459.28,218.00 460.50,218.00 C461.69,218.00 462.00,216.56 462.00,211.01 ZM 474.43 215.25 C474.33,213.74 474.20,209.46 474.13,205.75 C473.93,195.13 472.00,197.62 472.00,208.50 C472.00,215.61 472.33,218.00 473.30,218.00 C474.08,218.00 474.53,216.92 474.43,215.25 ZM 517.00 210.48 C517.00,203.27 517.11,202.91 519.63,201.95 C525.25,199.81 526.96,202.21 526.99,212.25 C526.99,215.41 527.45,218.00 528.00,218.00 C528.58,218.00 529.00,214.69 529.00,210.07 C529.00,199.99 528.03,198.80 520.14,199.24 L 514.50 199.57 L 514.21 208.78 C513.97,216.53 514.17,218.00 515.46,218.00 C516.71,218.00 517.00,216.58 517.00,210.48 ZM 650.00 217.00 C650.00,216.44 647.17,216.00 643.50,216.00 L 637.00 216.00 L 637.00 211.00 L 637.00 206.00 L 641.94 206.00 C644.66,206.00 647.16,205.55 647.50,205.00 C647.88,204.38 646.01,204.00 642.56,204.00 L 637.00 204.00 L 637.00 199.55 L 637.00 195.10 L 643.17 194.80 C646.99,194.61 649.50,194.02 649.75,193.25 C650.06,192.32 648.10,192.00 642.08,192.00 L 634.00 192.00 L 634.00 205.00 L 634.00 218.00 L 642.00 218.00 C646.67,218.00 650.00,217.58 650.00,217.00 ZM 712.21 210.28 L 712.50 202.57 L 715.73 201.65 C720.82,200.19 722.00,201.89 722.00,210.62 C722.00,216.51 722.30,218.00 723.50,218.00 C724.69,218.00 725.00,216.59 724.99,211.25 C724.98,207.54 724.40,203.38 723.70,202.00 C722.56,199.75 721.82,199.50 716.46,199.50 L 710.50 199.50 L 710.21 208.75 C710.04,214.41 710.31,218.00 710.92,218.00 C711.47,218.00 712.05,214.54 712.21,210.28 ZM 825.00 208.42 C825.00,201.19 824.69,198.94 823.75,199.25 C821.86,199.88 821.73,218.00 823.62,218.00 C824.70,218.00 825.00,215.90 825.00,208.42 ZM 852.00 210.48 C852.00,203.27 852.11,202.91 854.63,201.95 C860.26,199.81 861.96,202.21 861.99,212.33 C862.00,216.56 862.34,218.05 863.25,217.73 C865.29,217.02 864.47,201.84 862.31,200.25 C860.57,198.96 849.97,199.02 849.99,200.31 C849.99,200.69 850.00,204.82 850.00,209.50 C850.00,214.50 850.41,218.00 851.00,218.00 C851.58,218.00 852.00,214.83 852.00,210.48 ZM 888.00 208.50 C888.00,200.72 887.73,199.00 886.50,199.00 C885.27,199.00 885.00,200.72 885.00,208.50 C885.00,216.28 885.27,218.00 886.50,218.00 C887.73,218.00 888.00,216.28 888.00,208.50 ZM 921.64 214.75 C922.53,211.63 922.80,211.49 928.19,211.20 L 933.81 210.91 L 934.98 214.45 C936.21,218.16 938.04,219.27 937.95,216.25 C937.92,215.29 936.44,209.55 934.67,203.50 C931.53,192.74 931.39,192.49 928.36,192.20 C925.54,191.92 925.18,192.22 924.26,195.70 C921.55,205.85 919.05,214.71 918.45,216.27 C918.01,217.42 918.27,218.00 919.25,218.00 C920.05,218.00 921.13,216.54 921.64,214.75 ZM 964.00 208.42 C964.00,201.20 963.69,198.94 962.75,199.25 C961.90,199.53 961.41,202.60 961.21,208.83 C960.97,216.54 961.17,218.00 962.46,218.00 C963.74,218.00 964.00,216.37 964.00,208.42 ZM 346.00 192.94 C346.00,192.42 345.33,192.00 344.50,192.00 C342.95,192.00 342.51,193.18 343.64,194.31 C344.44,195.11 346.00,194.20 346.00,192.94 ZM 473.60 192.27 C472.59,191.25 471.75,192.78 472.58,194.13 C473.21,195.15 473.45,195.15 473.79,194.14 C474.02,193.44 473.94,192.60 473.60,192.27 ZM 825.00 192.94 C825.00,192.42 824.33,192.00 823.50,192.00 C821.95,192.00 821.51,193.18 822.64,194.31 C823.44,195.11 825.00,194.20 825.00,192.94 ZM 888.00 192.94 C888.00,192.42 887.33,192.00 886.50,192.00 C884.95,192.00 884.51,193.18 885.64,194.31 C886.44,195.11 888.00,194.20 888.00,192.94 ZM 964.00 192.94 C964.00,192.42 963.33,192.00 962.50,192.00 C960.95,192.00 960.51,193.18 961.64,194.31 C962.44,195.11 964.00,194.20 964.00,192.94 ZM 529.82 153.01 C535.49,152.47 540.56,151.78 541.07,151.46 C541.58,151.14 542.00,148.76 542.00,146.17 L 542.00 141.46 L 524.09 141.48 C506.36,141.50 506.15,141.47 503.46,139.00 C500.31,136.10 498.51,132.24 497.52,126.25 L 496.82 122.00 L 519.29 122.00 C538.98,122.00 541.92,121.80 543.13,120.34 C545.44,117.55 544.77,100.53 542.11,94.50 C536.97,82.90 530.81,78.84 517.35,78.19 C496.17,77.18 485.97,87.10 484.43,110.23 C483.18,128.91 486.93,142.79 494.85,148.83 C499.13,152.10 510.21,155.12 515.50,154.47 C517.70,154.20 524.14,153.54 529.82,153.01 ZM 647.82 153.01 C653.49,152.47 658.56,151.78 659.07,151.46 C659.58,151.14 660.00,148.77 660.00,146.19 L 660.00 141.50 L 642.09 141.50 C624.37,141.50 624.14,141.47 621.45,139.00 C618.03,135.85 615.05,129.48 615.02,125.27 L 615.00 122.04 L 638.25 121.77 L 661.50 121.50 L 661.50 109.50 C661.50,98.36 661.30,97.09 658.67,91.75 C654.01,82.24 646.09,78.00 633.03,78.00 C618.96,78.00 610.58,82.92 605.46,94.19 C602.88,99.87 602.56,101.80 602.20,113.50 C601.43,138.48 607.28,149.39 623.60,153.44 C626.85,154.25 631.30,154.70 633.50,154.44 C635.70,154.19 642.14,153.54 647.82,153.01 ZM 767.29 153.03 C772.68,152.56 777.74,151.63 778.54,150.96 C779.39,150.26 780.00,148.02 780.00,145.61 L 780.00 141.46 L 762.25 141.48 C746.04,141.50 744.27,141.33 741.83,139.50 C738.04,136.65 736.22,133.17 735.43,127.22 L 734.75 122.04 L 758.12 121.77 L 781.50 121.50 L 781.46 109.50 C781.42,98.41 781.20,97.06 778.60,91.77 C773.66,81.71 764.72,77.47 750.00,78.21 C736.94,78.87 730.51,82.97 725.20,94.00 C722.65,99.28 722.55,100.17 722.54,116.50 C722.54,131.85 722.75,133.96 724.71,138.19 C727.28,143.74 731.44,148.65 735.24,150.62 C739.82,153.00 749.26,154.95 753.50,154.40 C755.70,154.12 761.91,153.50 767.29,153.03 ZM 993.31 152.91 C996.50,152.37 1001.18,151.23 1003.72,150.38 C1008.13,148.88 1008.48,148.90 1012.26,151.03 C1014.75,152.43 1018.09,153.29 1021.35,153.37 L 1026.50 153.50 L 1026.80 148.37 C1027.08,143.54 1026.94,143.20 1024.43,142.57 C1019.08,141.23 1019.00,140.86 1018.99,117.32 C1018.99,104.49 1018.53,93.86 1017.88,91.52 C1016.47,86.43 1010.57,80.53 1005.48,79.12 C998.99,77.32 980.48,78.05 968.70,80.58 C966.06,81.15 965.92,81.45 966.20,85.84 L 966.50 90.50 L 972.50 90.45 C975.80,90.42 983.04,90.20 988.58,89.95 C1002.79,89.32 1006.00,91.46 1006.00,101.57 C1006.00,107.17 1005.29,107.49 990.50,108.48 C979.36,109.24 971.46,111.42 967.61,114.83 C960.02,121.53 960.25,141.07 967.99,148.49 C971.66,152.01 980.51,155.20 984.50,154.44 C986.15,154.13 990.11,153.44 993.31,152.91 ZM 919.26 152.09 C921.23,151.34 921.46,150.65 921.17,146.31 L 920.83 141.39 L 906.99 141.44 L 893.14 141.50 L 889.99 138.50 C884.77,133.54 883.75,129.94 883.62,116.00 C883.52,105.15 883.78,102.88 885.66,98.83 C889.14,91.30 891.18,90.50 906.97,90.50 L 920.50 90.50 L 920.80 85.30 L 921.10 80.11 L 917.30 79.32 C915.21,78.89 908.10,78.53 901.50,78.52 C890.68,78.50 889.01,78.75 884.51,81.00 C878.29,84.11 873.57,90.21 871.97,97.21 C868.95,110.41 869.96,130.50 874.13,139.99 C877.37,147.38 881.62,150.92 889.72,152.98 C893.97,154.06 915.81,153.40 919.26,152.09 ZM 415.77 133.72 L 416.04 114.94 L 429.12 115.22 L 442.19 115.50 L 450.92 134.00 L 459.64 152.50 L 465.97 152.80 C469.45,152.97 472.68,152.72 473.16,152.24 C473.63,151.77 472.63,148.53 470.88,144.94 C464.26,131.36 457.19,116.16 456.57,114.23 C456.08,112.67 456.68,111.74 459.22,110.17 C468.60,104.37 472.15,96.73 472.16,82.38 C472.17,69.95 469.97,63.84 463.64,58.70 C456.63,53.00 454.85,52.68 427.25,52.23 L 402.00 51.82 L 402.00 101.75 C402.00,129.20 402.32,151.99 402.71,152.38 C403.10,152.77 406.14,152.95 409.46,152.79 L 415.50 152.50 L 415.77 133.72 ZM 574.76 121.78 L 575.03 91.07 L 585.26 90.78 L 595.50 90.50 L 595.50 85.00 L 595.50 79.50 L 585.11 79.21 L 574.72 78.93 L 575.27 70.89 C576.03,59.82 576.76,59.15 588.37,58.79 L 597.50 58.50 L 597.50 53.00 L 597.50 47.50 L 586.45 47.22 C567.11,46.73 563.46,50.14 562.09,70.00 L 561.50 78.50 L 557.20 78.81 L 552.90 79.12 L 553.20 84.81 L 553.50 90.50 L 557.75 90.81 L 562.00 91.11 L 562.00 121.39 C562.00,138.04 562.32,151.99 562.71,152.38 C563.10,152.77 565.91,152.96 568.96,152.79 L 574.50 152.50 L 574.76 121.78 ZM 689.77 126.36 C689.96,107.06 690.36,99.98 691.27,99.29 C693.39,97.71 705.38,93.00 710.56,91.72 L 715.50 90.50 L 715.81 85.12 C716.27,77.05 716.04,76.81 709.80,78.61 C705.60,79.82 697.33,83.38 690.81,86.77 C690.44,86.96 689.99,85.41 689.81,83.31 L 689.50 79.50 L 683.25 79.20 L 677.00 78.90 L 677.00 115.29 C677.00,135.30 677.32,151.99 677.71,152.38 C678.10,152.77 680.91,152.96 683.96,152.79 L 689.50 152.50 L 689.77 126.36 ZM 809.76 123.35 L 810.03 94.21 L 814.26 92.46 C816.59,91.50 822.10,90.50 826.50,90.25 C833.66,89.84 834.80,90.03 837.32,92.03 C838.88,93.26 840.65,95.44 841.27,96.88 C841.94,98.46 842.61,109.99 842.94,126.00 L 843.50 152.50 L 848.33 152.81 C855.99,153.30 856.01,153.25 855.94,133.13 C855.80,94.80 854.24,86.83 845.80,81.25 C841.90,78.67 840.98,78.50 831.07,78.56 C822.81,78.60 819.37,79.06 815.33,80.68 C810.33,82.68 810.15,82.69 809.68,80.87 C809.27,79.30 808.21,79.00 803.09,79.00 L 797.00 79.00 L 797.00 115.33 C797.00,135.32 797.32,151.99 797.71,152.38 C798.10,152.77 800.91,152.96 803.96,152.79 L 809.50 152.50 L 809.76 123.35 ZM 947.89 151.63 C948.70,150.65 948.95,140.16 948.76,114.88 L 948.50 79.50 L 941.75 79.20 L 935.00 78.91 L 935.00 115.29 C935.00,135.30 935.30,151.97 935.67,152.33 C936.93,153.60 946.72,153.04 947.89,151.63 ZM 277.79 142.27 L 278.08 134.05 L 260.29 133.77 L 242.50 133.50 L 242.24 94.25 L 241.98 55.00 L 232.49 55.00 L 223.00 55.00 L 223.00 103.02 L 223.00 151.03 L 250.25 150.77 L 277.50 150.50 L 277.79 142.27 ZM 305.69 149.76 C306.14,149.08 307.17,145.37 308.00,141.51 L 309.50 134.50 L 326.62 134.23 L 343.74 133.95 L 345.53 142.51 L 347.33 151.07 L 356.91 150.78 C365.80,150.52 366.49,150.35 366.35,148.50 C366.27,147.40 364.56,139.30 362.56,130.50 C360.56,121.70 358.09,110.68 357.07,106.00 C356.05,101.32 353.80,91.43 352.06,84.00 C350.33,76.57 348.19,67.01 347.31,62.75 L 345.72 55.00 L 326.93 55.00 C309.89,55.00 308.09,55.16 307.62,56.75 C306.98,58.92 302.92,76.28 300.09,89.00 C298.92,94.22 296.67,104.12 295.08,111.00 C293.49,117.88 291.66,126.20 291.02,129.50 C290.37,132.80 289.20,137.72 288.42,140.43 C287.64,143.14 287.00,146.63 287.00,148.18 L 287.00 151.00 L 295.94 151.00 C301.94,151.00 305.15,150.59 305.69,149.76 ZM 947.80 64.80 C949.07,63.53 949.39,57.04 948.37,53.25 C947.82,51.21 947.16,51.00 941.38,51.00 L 935.00 51.00 L 935.00 57.83 C935.00,61.59 935.30,64.97 935.67,65.33 C936.82,66.49 946.54,66.06 947.80,64.80 ZM 674.67 215.33 C674.30,214.97 674.00,212.03 674.00,208.81 C674.00,203.44 674.21,202.87 676.57,201.98 C679.99,200.67 680.59,200.73 682.43,202.57 C684.22,204.36 684.54,211.13 682.96,214.07 C681.94,215.98 676.19,216.85 674.67,215.33 ZM 250.00 205.48 C250.00,203.74 250.80,202.59 252.58,201.78 C255.87,200.28 258.38,201.72 258.82,205.35 C259.12,207.88 258.92,208.00 254.57,208.00 C250.35,208.00 250.00,207.81 250.00,205.48 ZM 269.65 214.17 C265.52,209.60 269.12,200.53 274.81,201.19 C277.35,201.48 277.52,201.83 277.80,207.33 C277.98,210.78 277.62,213.75 276.93,214.58 C275.29,216.56 271.63,216.35 269.65,214.17 ZM 314.25 214.85 C313.56,214.16 313.00,213.27 313.00,212.87 C313.00,211.02 316.47,209.00 319.63,209.00 C322.97,209.00 323.11,209.14 322.81,212.25 C322.53,215.17 322.15,215.53 319.00,215.80 C317.07,215.96 314.93,215.53 314.25,214.85 ZM 374.56 213.78 C371.18,208.95 373.91,201.00 378.94,201.00 C383.03,201.00 385.56,209.22 382.96,214.07 C381.50,216.80 376.55,216.63 374.56,213.78 ZM 393.25 214.85 C390.37,211.97 393.21,209.00 398.81,209.00 C401.59,209.00 401.71,209.17 401.09,212.25 C400.54,214.94 399.92,215.55 397.46,215.80 C395.83,215.96 393.93,215.53 393.25,214.85 ZM 443.36 206.50 C442.45,204.14 443.69,202.12 446.47,201.42 C449.63,200.62 452.00,202.43 452.00,205.62 C452.00,207.73 451.55,208.00 447.97,208.00 C445.31,208.00 443.74,207.49 443.36,206.50 ZM 498.25 214.85 C495.37,211.97 498.21,209.00 503.81,209.00 C506.59,209.00 506.71,209.17 506.09,212.25 C505.54,214.94 504.92,215.55 502.46,215.80 C500.83,215.96 498.93,215.53 498.25,214.85 ZM 537.25 214.85 C534.45,212.05 537.19,209.00 542.50,209.00 C544.86,209.00 545.10,209.33 544.81,212.25 C544.54,215.05 544.08,215.54 541.50,215.80 C539.84,215.96 537.93,215.53 537.25,214.85 ZM 590.04 214.07 C586.95,208.29 590.41,200.57 595.81,201.19 C598.35,201.48 598.52,201.83 598.80,207.33 C598.98,210.78 598.62,213.75 597.93,214.58 C596.18,216.69 591.27,216.37 590.04,214.07 ZM 609.00 205.54 C609.00,202.25 612.37,200.39 615.63,201.88 C617.21,202.60 618.00,203.80 618.00,205.48 C618.00,207.80 617.64,208.00 613.50,208.00 C609.38,208.00 609.00,207.79 609.00,205.54 ZM 693.71 215.38 C691.10,212.76 694.51,209.00 699.50,209.00 C701.86,209.00 702.10,209.33 701.81,212.25 C701.53,215.18 701.15,215.53 697.96,215.80 C696.02,215.96 694.11,215.77 693.71,215.38 ZM 731.33 214.42 C730.29,211.71 732.41,209.53 736.42,209.19 C740.08,208.88 740.13,208.92 739.82,212.19 C739.53,215.23 739.19,215.53 735.74,215.81 C732.94,216.04 731.82,215.69 731.33,214.42 ZM 759.91 214.39 C759.14,213.46 758.66,210.82 758.77,208.14 C759.00,202.93 760.73,201.00 765.19,201.00 C768.00,201.00 768.00,201.01 768.00,207.89 C768.00,213.26 767.65,214.92 766.42,215.39 C763.70,216.43 761.30,216.06 759.91,214.39 ZM 778.49 206.99 C777.47,205.34 778.96,202.15 781.05,201.48 C783.83,200.60 786.79,201.78 787.51,204.04 C788.44,206.98 787.28,208.00 783.00,208.00 C780.86,208.00 778.84,207.55 778.49,206.99 ZM 833.49 206.99 C832.47,205.34 833.96,202.15 836.05,201.48 C838.83,200.60 841.79,201.78 842.51,204.04 C843.44,206.98 842.28,208.00 838.00,208.00 C835.86,208.00 833.84,207.55 833.49,206.99 ZM 896.25 214.85 C893.45,212.05 896.19,209.00 901.50,209.00 C903.86,209.00 904.10,209.33 903.81,212.25 C903.54,215.05 903.08,215.54 900.50,215.80 C898.84,215.96 896.93,215.53 896.25,214.85 ZM 944.41 214.63 C944.12,213.88 944.02,210.86 944.19,207.91 C944.49,202.79 944.64,202.53 947.88,201.60 C950.72,200.79 951.48,200.93 952.63,202.51 C954.51,205.08 954.39,212.47 952.43,214.43 C950.49,216.36 945.13,216.50 944.41,214.63 ZM 971.49 206.99 C970.47,205.34 971.96,202.15 974.05,201.48 C976.83,200.60 979.79,201.78 980.51,204.04 C981.44,206.98 980.28,208.00 976.00,208.00 C973.86,208.00 971.84,207.55 971.49,206.99 ZM 1016.20 214.80 C1013.34,211.94 1016.26,209.00 1021.93,209.00 C1024.65,209.00 1025.00,209.33 1025.00,211.89 C1025.00,213.61 1024.36,215.03 1023.42,215.39 C1020.87,216.37 1017.49,216.09 1016.20,214.80 ZM 229.67 205.33 C229.30,204.97 229.00,202.49 229.00,199.83 L 229.00 195.00 L 234.39 195.00 C238.39,195.00 239.94,195.41 240.39,196.58 C241.61,199.74 240.95,202.92 238.78,204.44 C236.53,206.01 230.90,206.57 229.67,205.33 ZM 924.00 207.82 C924.00,204.82 927.39,195.00 928.42,195.00 C929.66,195.00 933.22,206.83 932.39,208.18 C931.58,209.49 924.00,209.16 924.00,207.82 ZM 497.50 110.00 C496.58,108.52 497.93,101.02 499.84,97.00 C504.34,87.51 521.83,86.32 528.24,95.07 C530.49,98.14 532.14,108.46 530.63,109.97 C529.27,111.33 498.34,111.36 497.50,110.00 ZM 615.67 110.33 C613.43,108.10 616.87,96.18 620.71,92.81 C625.60,88.54 637.72,87.93 642.82,91.70 C644.30,92.79 646.25,95.23 647.16,97.13 C649.00,100.95 649.81,107.88 648.64,109.78 C647.82,111.09 616.95,111.62 615.67,110.33 ZM 735.31 109.36 C734.95,108.43 735.18,105.18 735.81,102.15 C737.80,92.67 744.53,88.22 755.32,89.26 C763.97,90.09 768.21,95.18 768.40,104.94 L 768.50 110.50 L 752.23 110.77 C737.71,111.02 735.89,110.87 735.31,109.36 ZM 982.09 142.14 C977.97,140.97 975.86,137.02 975.86,130.51 C975.86,121.83 977.93,120.14 990.09,118.96 C995.26,118.46 1000.96,118.04 1002.75,118.03 L 1006.00 118.00 L 1006.00 127.88 C1006.00,134.58 1005.60,138.07 1004.75,138.75 C1002.02,140.91 986.14,143.29 982.09,142.14 ZM 416.00 83.50 L 416.00 64.00 L 431.18 64.00 C449.51,64.00 453.52,65.30 456.94,72.38 C460.87,80.50 459.34,92.34 453.63,97.87 C449.24,102.13 445.33,102.95 429.25,102.98 L 416.00 103.00 L 416.00 83.50 ZM 314.52 112.75 C314.90,110.41 316.01,104.90 316.99,100.50 C317.98,96.10 319.81,87.66 321.08,81.75 L 323.38 71.00 L 326.67 71.00 C329.27,71.00 330.07,71.48 330.47,73.25 C330.75,74.49 332.13,80.90 333.54,87.50 C334.95,94.10 336.82,102.71 337.70,106.63 C340.07,117.15 340.24,117.00 325.94,117.00 L 313.82 117.00 L 314.52 112.75 Z" fill="rgb(254,254,254)"/>
</g>
</svg>